<svg xmlns="http://www.w3.org/2000/svg" xmlns:xlink="http://www.w3.org/1999/xlink"><symbol id="fb"><path fill-rule="evenodd" clip-rule="evenodd" d="M27 13.5C27 6.045 20.956 0 13.5 0S0 6.045 0 13.5C0 20.956 6.044 27 13.5 27S27 20.956 27 13.5ZM16.884 9.294h-1.74c-.469 0-.798.397-.798.891v.775h2.485l-.402 2.517h-2.083v6.747h-2.543v-6.747h-1.688V10.96h1.688V9.677h.004c.045-1.463.553-2.856 3.031-2.944v-.01h2.046v2.571Z" fill="#CDCDCD"/></symbol><symbol id="footer-logo-desktop"><path d="M76.936 24.337c0-.724-.188-1.27-.562-1.636-.366-.374-1.038-.76-2.014-1.16-1.782-.675-3.064-1.464-3.845-2.368-.782-.911-1.172-1.985-1.172-3.222 0-1.498.529-2.698 1.587-3.601 1.066-.912 2.417-1.368 4.052-1.368 1.09 0 2.063.232 2.918.696a4.708 4.708 0 0 1 1.965 1.941c.464.838.696 1.79.696 2.857h-3.577c0-.83-.179-1.461-.537-1.892-.35-.44-.858-.66-1.526-.66-.626 0-1.115.188-1.465.562-.35.366-.524.862-.524 1.49 0 .487.195.93.586 1.33.39.39 1.082.797 2.075 1.22 1.733.627 2.99 1.396 3.772 2.308.79.911 1.184 2.07 1.184 3.479 0 1.546-.493 2.754-1.477 3.625-.985.87-2.324 1.306-4.016 1.306-1.148 0-2.194-.236-3.138-.708a5.35 5.35 0 0 1-2.221-2.026c-.53-.88-.794-1.917-.794-3.113h3.601c0 1.025.2 1.77.599 2.234.398.464 1.05.696 1.953.696 1.253 0 1.88-.664 1.88-1.99Zm9.07-8.545.097 1.22c.773-.976 1.794-1.464 3.064-1.464 1.318 0 2.25.594 2.795 1.782.757-1.188 1.835-1.782 3.235-1.782 2.311 0 3.495 1.599 3.552 4.797V29h-3.454v-8.435c0-.765-.106-1.31-.317-1.636-.212-.325-.57-.488-1.075-.488-.643 0-1.123.395-1.44 1.184l.024.415V29h-3.454v-8.41c0-.758-.102-1.303-.305-1.636-.204-.342-.566-.513-1.087-.513-.594 0-1.066.321-1.416.964V29h-3.454V15.792h3.234ZM107.586 29c-.097-.203-.195-.545-.293-1.025-.618.846-1.456 1.27-2.514 1.27-1.107 0-2.027-.367-2.759-1.1-.724-.732-1.086-1.68-1.086-2.844 0-1.383.439-2.453 1.318-3.21.887-.757 2.161-1.144 3.821-1.16h1.05V19.87c0-.594-.102-1.013-.306-1.257-.203-.244-.5-.366-.891-.366-.862 0-1.294.504-1.294 1.513h-3.454c0-1.22.455-2.226 1.367-3.015.919-.797 2.079-1.196 3.479-1.196 1.448 0 2.567.378 3.357 1.135.797.749 1.196 1.823 1.196 3.223v6.213c.016 1.14.179 2.03.488 2.674V29h-3.479Zm-2.038-2.466c.382 0 .708-.077.976-.232.269-.154.468-.337.599-.55v-2.746h-.831c-.585 0-1.049.188-1.391.562-.334.374-.501.875-.501 1.501 0 .977.383 1.465 1.148 1.465Zm14.05-7.41-1.147-.097c-.944 0-1.583.415-1.917 1.245V29h-3.467V15.792h3.26l.097 1.428c.546-1.115 1.298-1.672 2.259-1.672.39 0 .708.053.952.159l-.037 3.418Zm6.409-6.58v3.248h1.77v2.6h-1.77v6.555c0 .521.069.88.207 1.075.147.195.424.293.83.293.334 0 .607-.029.818-.086l-.024 2.686c-.586.22-1.221.33-1.904.33-2.23 0-3.357-1.279-3.382-3.834v-7.019h-1.526v-2.6h1.526v-3.247h3.455ZM135.615 29V11.227h4.699c2.076 0 3.728.659 4.957 1.977 1.236 1.319 1.867 3.125 1.892 5.42v2.88c0 2.336-.619 4.172-1.856 5.506-1.229 1.327-2.925 1.99-5.09 1.99h-4.602Zm3.589-14.783v11.804h1.074c1.196 0 2.038-.313 2.527-.94.488-.634.744-1.725.769-3.27v-3.09c0-1.66-.232-2.815-.696-3.466-.464-.66-1.253-1.005-2.368-1.038h-1.306Zm15.71 15.027c-1.774 0-3.157-.529-4.15-1.587-.993-1.058-1.49-2.571-1.49-4.54v-1.05c0-2.084.456-3.691 1.368-4.822.911-1.132 2.217-1.697 3.918-1.697 1.66 0 2.909.533 3.748 1.599.838 1.058 1.265 2.629 1.281 4.712v1.697h-6.872c.049.976.264 1.692.647 2.148.382.448.972.671 1.77.671 1.155 0 2.12-.394 2.893-1.184l1.355 2.088c-.423.586-1.038 1.062-1.843 1.428a6.392 6.392 0 0 1-2.625.537Zm-2.173-8.105h3.455v-.318c-.016-.79-.147-1.387-.391-1.794-.244-.407-.667-.61-1.269-.61-.603 0-1.042.215-1.319.646-.268.432-.427 1.123-.476 2.076Zm12.964 2.978 1.672-8.325h3.602L167.353 29h-3.296l-3.638-13.208h3.614l1.672 8.325ZM176.228 29h-3.467V15.792h3.467V29Zm-3.626-16.626c0-.537.171-.976.513-1.318.342-.342.797-.513 1.367-.513s1.025.17 1.367.513c.342.342.513.78.513 1.318 0 .529-.171.968-.513 1.318-.334.35-.789.525-1.367.525s-1.038-.175-1.379-.525c-.334-.35-.501-.789-.501-1.318Zm11.072 14.001c1.001 0 1.509-.65 1.526-1.953h3.247c-.016 1.44-.46 2.604-1.331 3.492-.871.887-1.994 1.33-3.369 1.33-1.701 0-2.999-.529-3.894-1.587-.895-1.058-1.351-2.616-1.367-4.675v-1.05c0-2.075.439-3.658 1.318-4.748.887-1.09 2.193-1.636 3.919-1.636 1.456 0 2.604.451 3.442 1.355.838.895 1.266 2.169 1.282 3.82H185.2c-.008-.74-.131-1.31-.367-1.708-.236-.4-.626-.599-1.171-.599-.603 0-1.034.216-1.294.648-.261.423-.399 1.249-.415 2.477v1.343c0 1.075.053 1.827.158 2.259.106.423.281.736.525.94.244.195.59.293 1.038.293Zm12.06 2.87c-1.774 0-3.157-.53-4.15-1.588-.993-1.058-1.489-2.571-1.489-4.54v-1.05c0-2.084.455-3.691 1.367-4.822.911-1.132 2.218-1.697 3.918-1.697 1.661 0 2.91.533 3.748 1.599.838 1.058 1.265 2.629 1.282 4.712v1.697h-6.873c.049.976.265 1.692.647 2.148.383.448.973.671 1.77.671 1.156 0 2.12-.394 2.893-1.184l1.355 2.088c-.423.586-1.037 1.062-1.843 1.428a6.392 6.392 0 0 1-2.625.537Zm-2.172-8.106h3.454v-.318c-.016-.79-.146-1.387-.391-1.794-.244-.407-.667-.61-1.269-.61-.602 0-1.042.215-1.318.646-.269.432-.428 1.123-.476 2.076Z" fill="#203C42"/><path d="m70.947 44.96 1.29-4.3h1.517l-2.52 7.3c-.386 1.067-1.043 1.6-1.968 1.6a2.55 2.55 0 0 1-.686-.105v-1.102l.27.018c.359 0 .629-.066.808-.2.184-.128.328-.347.434-.655l.205-.545-2.227-6.31h1.536l1.341 4.3Zm7.395.288 1.875-4.588h1.781V47h-1.424v-4.195L78.828 47h-.967l-1.752-4.219V47h-1.423v-6.34h1.792l1.864 4.588ZM88.97 47h-1.424v-2.56H85.08V47h-1.424v-6.34h1.424v2.643h2.467V40.66h1.424V47Zm3.052-4.324h1.395c.52 0 .973.09 1.36.27.386.179.679.431.878.755.203.324.305.701.305 1.131 0 .652-.23 1.176-.692 1.57-.46.395-1.074.594-1.84.598H90.6v-6.34h1.424v2.016ZM98.44 47h-1.423v-6.34h1.423V47Zm-6.416-3.182v2.045h1.39c.347 0 .62-.086.82-.258.203-.175.304-.423.304-.744 0-.32-.1-.572-.299-.755-.195-.188-.46-.284-.797-.288h-1.418Zm10.916 3.3c-.902 0-1.634-.284-2.197-.85-.558-.57-.838-1.328-.838-2.274v-.176c0-.633.121-1.197.364-1.693.246-.5.589-.889 1.031-1.166a2.715 2.715 0 0 1 1.476-.416c.864 0 1.53.275 1.998.826.473.55.709 1.33.709 2.338v.574h-4.142c.043.524.217.938.521 1.242.309.305.696.457 1.16.457.653 0 1.184-.263 1.594-.79l.768.732a2.58 2.58 0 0 1-1.02.885c-.422.207-.896.31-1.424.31Zm-.169-5.433c-.391 0-.708.137-.95.41-.238.274-.39.655-.457 1.143h2.713v-.105c-.031-.477-.158-.836-.381-1.078-.222-.246-.531-.37-.925-.37Zm11.8.106h-2.056V47h-1.424v-5.209h-2.033v-1.13h5.513v1.13Zm3.369 5.326c-.902 0-1.634-.283-2.197-.85-.558-.57-.838-1.328-.838-2.273v-.176c0-.633.121-1.197.364-1.693.246-.5.589-.889 1.031-1.166a2.715 2.715 0 0 1 1.476-.416c.864 0 1.53.275 1.998.826.473.55.709 1.33.709 2.338v.574h-4.142c.043.524.217.938.521 1.242.309.305.696.457 1.16.457.653 0 1.184-.263 1.594-.79l.768.732a2.58 2.58 0 0 1-1.02.885c-.422.207-.896.31-1.424.31Zm-.169-5.431c-.391 0-.708.136-.95.41-.238.273-.39.654-.457 1.142h2.713v-.105c-.031-.477-.158-.836-.381-1.078-.222-.246-.531-.37-.925-.37Zm6.099 1.06 1.207-2.086h1.582l-1.939 3.123L126.723 47h-1.571l-1.265-2.168-1.26 2.168h-1.582l2.004-3.217-1.934-3.123h1.571l1.183 2.086ZM132.998 47h-1.424v-2.56h-2.467V47h-1.423v-6.34h1.423v2.643h2.467V40.66h1.424V47Zm1.254-3.228c0-.622.123-1.18.369-1.676.246-.5.592-.883 1.037-1.149.446-.27.957-.404 1.535-.404.856 0 1.549.275 2.08.826.536.55.825 1.281.868 2.191l.005.334c0 .626-.121 1.184-.363 1.676a2.638 2.638 0 0 1-1.031 1.143c-.445.27-.961.404-1.547.404-.894 0-1.611-.297-2.15-.89-.535-.598-.803-1.393-.803-2.385v-.07Zm1.424.123c0 .652.135 1.164.404 1.535.27.367.645.55 1.125.55.481 0 .854-.187 1.119-.562.27-.375.405-.924.405-1.646 0-.641-.139-1.149-.417-1.524-.273-.375-.646-.563-1.119-.563-.464 0-.834.186-1.107.557-.274.367-.41.918-.41 1.653Zm10.969-3.235V47h-1.424v-5.191h-1.793l-.117 2.209c-.075 1.062-.28 1.826-.616 2.29-.332.462-.841.692-1.529.692h-.439l-.006-1.184.293-.029c.312-.043.539-.232.679-.568.145-.34.237-.957.276-1.852l.117-2.707h4.559Zm1.248 3.112c0-.622.123-1.18.369-1.676.246-.5.592-.883 1.037-1.149.445-.27.957-.404 1.535-.404.855 0 1.549.275 2.08.826.535.55.824 1.281.867 2.191l.006.334c0 .626-.121 1.184-.363 1.676a2.638 2.638 0 0 1-1.031 1.143c-.446.27-.961.404-1.547.404-.895 0-1.612-.297-2.151-.89-.535-.598-.802-1.393-.802-2.385v-.07Zm1.423.123c0 .652.135 1.164.405 1.535.269.367.644.55 1.125.55.48 0 .853-.187 1.119-.562.269-.375.404-.924.404-1.646 0-.641-.139-1.149-.416-1.524-.273-.375-.646-.563-1.119-.563-.465 0-.834.186-1.107.557-.274.367-.411.918-.411 1.653Zm9.897-2.086h-2.754V47h-1.418v-6.34h4.172v1.149Zm4.764-1.149h1.418V47h-1.418v-4.23L161.492 47h-1.418v-6.34h1.418v4.23l2.485-4.23Zm6.89 0h1.418V47h-1.418v-4.23L168.383 47h-1.418v-6.34h1.418v4.23l2.484-4.23Z" fill="#788891"/><path d="M32.067 13.867c1.128 0 2.081.727 2.44 1.733h8.986a2.596 2.596 0 0 1 2.44-1.733c1.434 0 2.6 1.166 2.6 2.6 0 1.433-1.166 2.6-2.6 2.6a2.597 2.597 0 0 1-2.44-1.734h-8.987a2.597 2.597 0 0 1-2.44 1.733 2.603 2.603 0 0 1-2.6-2.6c0-1.433 1.167-2.6 2.6-2.6Zm13.866 3.466a.868.868 0 0 0 0-1.733.867.867 0 0 0 0 1.733Zm-13.866 0a.868.868 0 1 0-.002-1.735.868.868 0 0 0 .002 1.735Z" fill="#00B2FF"/><path d="M25.133 19.226v-5.36c0-.23.091-.45.254-.612l3.467-3.467a.864.864 0 0 1 .613-.254h2.76a2.596 2.596 0 0 1 2.44-1.733c1.433 0 2.6 1.166 2.6 2.6 0 1.433-1.167 2.6-2.6 2.6a2.596 2.596 0 0 1-2.44-1.733h-2.402l-2.958 2.958v5a2.596 2.596 0 0 1 1.733 2.441c0 1.434-1.167 2.6-2.6 2.6a2.603 2.603 0 0 1-2.6-2.6c0-1.128.727-2.081 1.733-2.44Zm9.534-7.96a.868.868 0 1 0-.002-1.735.868.868 0 0 0 .002 1.736ZM26 22.534a.867.867 0 1 0-.002-1.735.867.867 0 0 0 .002 1.735ZM9.533 22.533c.4 0 .775.098 1.114.26l1.486-1.485V13c0-.23.091-.45.254-.613l8.674-8.673A2.556 2.556 0 0 1 20.8 2.6c0-1.433 1.166-2.6 2.6-2.6C24.834 0 26 1.167 26 2.6s-1.166 2.6-2.6 2.6c-.4 0-.775-.098-1.114-.261l-8.42 8.42v8.307c0 .23-.09.451-.253.613l-1.74 1.74c.162.34.26.714.26 1.114 0 1.433-1.166 2.6-2.6 2.6a2.603 2.603 0 0 1-2.6-2.6c0-1.433 1.167-2.6 2.6-2.6ZM23.4 3.467a.868.868 0 0 0 0-1.734.868.868 0 0 0 0 1.734ZM9.533 26a.868.868 0 1 0-.001-1.735A.868.868 0 0 0 9.533 26ZM1.733 12.293V8.667c0-.231.091-.451.254-.613l6.067-6.067a.864.864 0 0 1 .613-.254h4.492A2.597 2.597 0 0 1 15.6 0c1.433 0 2.6 1.167 2.6 2.6s-1.167 2.6-2.6 2.6a2.597 2.597 0 0 1-2.44-1.733H9.024L3.467 9.025v3.268a2.596 2.596 0 0 1 1.733 2.44c0 1.433-1.167 2.6-2.6 2.6a2.603 2.603 0 0 1-2.6-2.6c0-1.128.727-2.082 1.733-2.44ZM15.6 3.467a.867.867 0 1 0-.002-1.735.867.867 0 0 0 .002 1.735ZM2.6 15.6a.867.867 0 1 0-.002-1.735A.867.867 0 0 0 2.6 15.6ZM13.866 46.96V34.507a2.597 2.597 0 0 1-1.733-2.44c0-1.434 1.167-2.6 2.6-2.6 1.129 0 2.082.726 2.44 1.733h8.986a2.597 2.597 0 0 1 2.441-1.734c1.128 0 2.082.727 2.44 1.733h5.001l3.22-3.22A2.557 2.557 0 0 1 39 26.867c0-1.433 1.166-2.6 2.6-2.6 1.433 0 2.6 1.167 2.6 2.6 0 1.434-1.167 2.6-2.6 2.6-.4 0-.775-.098-1.114-.26l-3.473 3.473a.864.864 0 0 1-.613.254h-5.36a2.597 2.597 0 0 1-2.44 1.733 2.597 2.597 0 0 1-2.44-1.733h-8.987a2.598 2.598 0 0 1-1.574 1.574V46.96a2.596 2.596 0 0 1 1.733 2.44c0 1.434-1.166 2.6-2.6 2.6a2.603 2.603 0 0 1-2.6-2.6c0-1.128.728-2.082 1.734-2.44ZM41.6 27.732a.867.867 0 1 0-.002-1.735.867.867 0 0 0 .002 1.735Zm-13 5.2a.868.868 0 1 0-.002-1.735.868.868 0 0 0 .002 1.735ZM14.733 50.266a.868.868 0 0 0 0-1.733.868.868 0 0 0 0 1.733Zm0-17.333a.868.868 0 0 0 0-1.733.868.868 0 0 0 0 1.733Z" fill="#00B2FF"/><path d="M18.2 17.492v-2.759c0-.23.091-.45.254-.613L28.86 3.714A2.556 2.556 0 0 1 28.6 2.6c0-1.433 1.166-2.6 2.6-2.6 1.128 0 2.082.727 2.44 1.733h3.627c.478 0 .866.388.866.867v2.241l3.22 3.22c.339-.163.713-.261 1.114-.261 1.433 0 2.6 1.166 2.6 2.6 0 1.433-1.167 2.6-2.6 2.6a2.603 2.603 0 0 1-2.6-2.6c0-.4.098-.775.26-1.114l-3.473-3.473A.863.863 0 0 1 36.4 5.2V3.467h-2.76A2.596 2.596 0 0 1 31.2 5.2c-.4 0-.775-.098-1.114-.261L19.933 15.092v2.4a2.596 2.596 0 0 1 1.734 2.441c0 1.433-1.167 2.6-2.6 2.6a2.603 2.603 0 0 1-2.6-2.6c0-1.128.727-2.082 1.733-2.44Zm24.267-6.226a.868.868 0 1 0-.002-1.735.868.868 0 0 0 .002 1.736ZM31.2 3.467a.868.868 0 0 0 0-1.733.868.868 0 0 0 0 1.734ZM19.067 20.8a.868.868 0 1 0-.002-1.735.868.868 0 0 0 .002 1.735Z" fill="#00B2FF"/><path d="M20.8 24.266c1.128 0 2.082.727 2.44 1.734h10.201l4.946-4.946A.864.864 0 0 1 39 20.8h9.175l2.092-2.092v-7.083L43.58 4.94c-.338.163-.713.26-1.113.26a2.603 2.603 0 0 1-2.6-2.599c0-1.433 1.166-2.6 2.6-2.6 1.433 0 2.6 1.167 2.6 2.6 0 .4-.098.775-.261 1.114l6.94 6.94a.863.863 0 0 1 .254.613v7.8c0 .23-.091.45-.254.612l-2.6 2.6a.864.864 0 0 1-.613.254H39.36l-4.946 4.946a.864.864 0 0 1-.613.254H23.24a2.596 2.596 0 0 1-2.44 1.733 2.603 2.603 0 0 1-2.6-2.6c0-1.433 1.166-2.6 2.6-2.6ZM42.467 1.733a.868.868 0 1 0 .001 1.735.868.868 0 0 0-.001-1.735Zm-21.667 26a.868.868 0 0 0 0-1.733.868.868 0 0 0 0 1.733ZM2.6 20.8c.4 0 .775.098 1.114.26l3.22-3.219v-5A2.596 2.596 0 0 1 5.2 10.4c0-1.434 1.167-2.6 2.6-2.6s2.6 1.166 2.6 2.6a2.596 2.596 0 0 1-1.733 2.44v5.36c0 .23-.091.45-.254.613l-3.474 3.473c.163.339.261.713.261 1.114a2.597 2.597 0 0 1-1.733 2.44v.668l6.679 6.679a.863.863 0 0 1 .254.613v1.026a2.596 2.596 0 0 1 1.733 2.44 2.596 2.596 0 0 1-1.733 2.44v2.054a2.596 2.596 0 0 1 1.733 2.44c0 1.434-1.166 2.6-2.6 2.6a2.603 2.603 0 0 1-2.6-2.6c0-1.128.727-2.082 1.734-2.44v-2.053a2.596 2.596 0 0 1-1.734-2.44c0-1.13.727-2.083 1.734-2.441v-.668l-6.68-6.679a.863.863 0 0 1-.254-.613V25.84A2.597 2.597 0 0 1 0 23.4c0-1.434 1.167-2.6 2.6-2.6Zm5.2-9.534a.867.867 0 1 0-.002-1.734.867.867 0 0 0 .002 1.735Zm1.733 33.8a.868.868 0 0 0 0-1.733.867.867 0 0 0 0 1.733Zm0-6.933a.868.868 0 0 0 0-1.733.867.867 0 0 0 0 1.733ZM2.6 24.266a.867.867 0 1 0-.002-1.735.867.867 0 0 0 .002 1.735Z" fill="#00B2FF"/></symbol><symbol id="header-logo-desktop"><path d="M76.936 24.337c0-.724-.188-1.27-.562-1.636-.366-.374-1.038-.76-2.014-1.16-1.782-.675-3.064-1.464-3.845-2.368-.782-.911-1.172-1.985-1.172-3.222 0-1.498.529-2.698 1.587-3.601 1.066-.912 2.417-1.368 4.052-1.368 1.09 0 2.063.232 2.918.696a4.708 4.708 0 0 1 1.965 1.941c.464.838.696 1.79.696 2.857h-3.577c0-.83-.179-1.461-.537-1.892-.35-.44-.858-.66-1.526-.66-.626 0-1.115.188-1.465.562-.35.366-.524.862-.524 1.49 0 .487.195.93.586 1.33.39.39 1.082.797 2.075 1.22 1.733.627 2.99 1.396 3.772 2.308.79.911 1.184 2.07 1.184 3.479 0 1.546-.493 2.754-1.477 3.625-.985.87-2.324 1.306-4.016 1.306-1.148 0-2.194-.236-3.138-.708a5.35 5.35 0 0 1-2.221-2.026c-.53-.88-.794-1.917-.794-3.113h3.601c0 1.025.2 1.77.599 2.234.398.464 1.05.696 1.953.696 1.253 0 1.88-.664 1.88-1.99Zm9.07-8.545.097 1.22c.773-.976 1.794-1.464 3.064-1.464 1.318 0 2.25.594 2.795 1.782.757-1.188 1.835-1.782 3.235-1.782 2.311 0 3.495 1.599 3.552 4.797V29h-3.454v-8.435c0-.765-.106-1.31-.317-1.636-.212-.325-.57-.488-1.075-.488-.643 0-1.123.395-1.44 1.184l.024.415V29h-3.454v-8.41c0-.758-.102-1.303-.305-1.636-.204-.342-.566-.513-1.087-.513-.594 0-1.066.321-1.416.964V29h-3.454V15.792h3.234ZM107.586 29c-.097-.203-.195-.545-.293-1.025-.618.846-1.456 1.27-2.514 1.27-1.107 0-2.027-.367-2.759-1.1-.724-.732-1.086-1.68-1.086-2.844 0-1.383.439-2.453 1.318-3.21.887-.757 2.161-1.144 3.821-1.16h1.05V19.87c0-.594-.102-1.013-.306-1.257-.203-.244-.5-.366-.891-.366-.862 0-1.294.504-1.294 1.513h-3.454c0-1.22.455-2.226 1.367-3.015.919-.797 2.079-1.196 3.479-1.196 1.448 0 2.567.378 3.357 1.135.797.749 1.196 1.823 1.196 3.223v6.213c.016 1.14.179 2.03.488 2.674V29h-3.479Zm-2.038-2.466c.382 0 .708-.077.976-.232.269-.154.468-.337.599-.55v-2.746h-.831c-.585 0-1.049.188-1.391.562-.334.374-.501.875-.501 1.501 0 .977.383 1.465 1.148 1.465Zm14.05-7.41-1.147-.097c-.944 0-1.583.415-1.917 1.245V29h-3.467V15.792h3.26l.097 1.428c.546-1.115 1.298-1.672 2.259-1.672.39 0 .708.053.952.159l-.037 3.418Zm6.409-6.58v3.248h1.77v2.6h-1.77v6.555c0 .521.069.88.207 1.075.147.195.424.293.83.293.334 0 .607-.029.818-.086l-.024 2.686c-.586.22-1.221.33-1.904.33-2.23 0-3.357-1.279-3.382-3.834v-7.019h-1.526v-2.6h1.526v-3.247h3.455ZM135.615 29V11.227h4.699c2.076 0 3.728.659 4.957 1.977 1.236 1.319 1.867 3.125 1.892 5.42v2.88c0 2.336-.619 4.172-1.856 5.506-1.229 1.327-2.925 1.99-5.09 1.99h-4.602Zm3.589-14.783v11.804h1.074c1.196 0 2.038-.313 2.527-.94.488-.634.744-1.725.769-3.27v-3.09c0-1.66-.232-2.815-.696-3.466-.464-.66-1.253-1.005-2.368-1.038h-1.306Zm15.71 15.027c-1.774 0-3.157-.529-4.15-1.587-.993-1.058-1.49-2.571-1.49-4.54v-1.05c0-2.084.456-3.691 1.368-4.822.911-1.132 2.217-1.697 3.918-1.697 1.66 0 2.909.533 3.748 1.599.838 1.058 1.265 2.629 1.281 4.712v1.697h-6.872c.049.976.264 1.692.647 2.148.382.448.972.671 1.77.671 1.155 0 2.12-.394 2.893-1.184l1.355 2.088c-.423.586-1.038 1.062-1.843 1.428a6.392 6.392 0 0 1-2.625.537Zm-2.173-8.105h3.455v-.318c-.016-.79-.147-1.387-.391-1.794-.244-.407-.667-.61-1.269-.61-.603 0-1.042.215-1.319.646-.268.432-.427 1.123-.476 2.076Zm12.964 2.978 1.672-8.325h3.602L167.353 29h-3.296l-3.638-13.208h3.614l1.672 8.325ZM176.228 29h-3.467V15.792h3.467V29Zm-3.626-16.626c0-.537.171-.976.513-1.318.342-.342.797-.513 1.367-.513s1.025.17 1.367.513c.342.342.513.78.513 1.318 0 .529-.171.968-.513 1.318-.334.35-.789.525-1.367.525s-1.038-.175-1.379-.525c-.334-.35-.501-.789-.501-1.318Zm11.072 14.001c1.001 0 1.509-.65 1.526-1.953h3.247c-.016 1.44-.46 2.604-1.331 3.492-.871.887-1.994 1.33-3.369 1.33-1.701 0-2.999-.529-3.894-1.587-.895-1.058-1.351-2.616-1.367-4.675v-1.05c0-2.075.439-3.658 1.318-4.748.887-1.09 2.193-1.636 3.919-1.636 1.456 0 2.604.451 3.442 1.355.838.895 1.266 2.169 1.282 3.82H185.2c-.008-.74-.131-1.31-.367-1.708-.236-.4-.626-.599-1.171-.599-.603 0-1.034.216-1.294.648-.261.423-.399 1.249-.415 2.477v1.343c0 1.075.053 1.827.158 2.259.106.423.281.736.525.94.244.195.59.293 1.038.293Zm12.06 2.87c-1.774 0-3.157-.53-4.15-1.588-.993-1.058-1.489-2.571-1.489-4.54v-1.05c0-2.084.455-3.691 1.367-4.822.911-1.132 2.218-1.697 3.918-1.697 1.661 0 2.91.533 3.748 1.599.838 1.058 1.265 2.629 1.282 4.712v1.697h-6.873c.049.976.265 1.692.647 2.148.383.448.973.671 1.77.671 1.156 0 2.12-.394 2.893-1.184l1.355 2.088c-.423.586-1.037 1.062-1.843 1.428a6.392 6.392 0 0 1-2.625.537Zm-2.172-8.106h3.454v-.318c-.016-.79-.146-1.387-.391-1.794-.244-.407-.667-.61-1.269-.61-.602 0-1.042.215-1.318.646-.269.432-.428 1.123-.476 2.076Z" fill="#fff"/><path d="m70.947 44.96 1.29-4.3h1.517l-2.52 7.3c-.386 1.067-1.043 1.6-1.968 1.6a2.55 2.55 0 0 1-.686-.105v-1.102l.27.018c.359 0 .629-.066.808-.2.184-.128.328-.347.434-.655l.205-.545-2.227-6.31h1.536l1.341 4.3Zm7.395.288 1.875-4.588h1.781V47h-1.424v-4.195L78.828 47h-.967l-1.752-4.219V47h-1.423v-6.34h1.792l1.864 4.588ZM88.97 47h-1.424v-2.56H85.08V47h-1.424v-6.34h1.424v2.643h2.467V40.66h1.424V47Zm3.052-4.324h1.395c.52 0 .973.09 1.36.27.386.179.679.431.878.755.203.324.305.701.305 1.131 0 .652-.23 1.176-.692 1.57-.46.395-1.074.594-1.84.598H90.6v-6.34h1.424v2.016ZM98.44 47h-1.423v-6.34h1.423V47Zm-6.416-3.182v2.045h1.39c.347 0 .62-.086.82-.258.203-.175.304-.423.304-.744 0-.32-.1-.572-.299-.755-.195-.188-.46-.284-.797-.288h-1.418Zm10.916 3.3c-.902 0-1.634-.284-2.197-.85-.558-.57-.838-1.328-.838-2.274v-.176c0-.633.121-1.197.364-1.693.246-.5.589-.889 1.031-1.166a2.715 2.715 0 0 1 1.476-.416c.864 0 1.53.275 1.998.826.473.55.709 1.33.709 2.338v.574h-4.142c.043.524.217.938.521 1.242.309.305.696.457 1.16.457.653 0 1.184-.263 1.594-.79l.768.732a2.58 2.58 0 0 1-1.02.885c-.422.207-.896.31-1.424.31Zm-.169-5.433c-.391 0-.708.137-.95.41-.238.274-.39.655-.457 1.143h2.713v-.105c-.031-.477-.158-.836-.381-1.078-.222-.246-.531-.37-.925-.37Zm11.8.106h-2.056V47h-1.424v-5.209h-2.033v-1.13h5.513v1.13Zm3.369 5.326c-.902 0-1.634-.283-2.197-.85-.558-.57-.838-1.328-.838-2.273v-.176c0-.633.121-1.197.364-1.693.246-.5.589-.889 1.031-1.166a2.715 2.715 0 0 1 1.476-.416c.864 0 1.53.275 1.998.826.473.55.709 1.33.709 2.338v.574h-4.142c.043.524.217.938.521 1.242.309.305.696.457 1.16.457.653 0 1.184-.263 1.594-.79l.768.732a2.58 2.58 0 0 1-1.02.885c-.422.207-.896.31-1.424.31Zm-.169-5.431c-.391 0-.708.136-.95.41-.238.273-.39.654-.457 1.142h2.713v-.105c-.031-.477-.158-.836-.381-1.078-.222-.246-.531-.37-.925-.37Zm6.099 1.06 1.207-2.086h1.582l-1.939 3.123L126.723 47h-1.571l-1.265-2.168-1.26 2.168h-1.582l2.004-3.217-1.934-3.123h1.571l1.183 2.086ZM132.998 47h-1.424v-2.56h-2.467V47h-1.423v-6.34h1.423v2.643h2.467V40.66h1.424V47Zm1.254-3.228c0-.622.123-1.18.369-1.676.246-.5.592-.883 1.037-1.149.446-.27.957-.404 1.535-.404.856 0 1.549.275 2.08.826.536.55.825 1.281.868 2.191l.005.334c0 .626-.121 1.184-.363 1.676a2.638 2.638 0 0 1-1.031 1.143c-.445.27-.961.404-1.547.404-.894 0-1.611-.297-2.15-.89-.535-.598-.803-1.393-.803-2.385v-.07Zm1.424.123c0 .652.135 1.164.404 1.535.27.367.645.55 1.125.55.481 0 .854-.187 1.119-.562.27-.375.405-.924.405-1.646 0-.641-.139-1.149-.417-1.524-.273-.375-.646-.563-1.119-.563-.464 0-.834.186-1.107.557-.274.367-.41.918-.41 1.653Zm10.969-3.235V47h-1.424v-5.191h-1.793l-.117 2.209c-.075 1.062-.28 1.826-.616 2.29-.332.462-.841.692-1.529.692h-.439l-.006-1.184.293-.029c.312-.043.539-.232.679-.568.145-.34.237-.957.276-1.852l.117-2.707h4.559Zm1.248 3.112c0-.622.123-1.18.369-1.676.246-.5.592-.883 1.037-1.149.445-.27.957-.404 1.535-.404.855 0 1.549.275 2.08.826.535.55.824 1.281.867 2.191l.006.334c0 .626-.121 1.184-.363 1.676a2.638 2.638 0 0 1-1.031 1.143c-.446.27-.961.404-1.547.404-.895 0-1.612-.297-2.151-.89-.535-.598-.802-1.393-.802-2.385v-.07Zm1.423.123c0 .652.135 1.164.405 1.535.269.367.644.55 1.125.55.48 0 .853-.187 1.119-.562.269-.375.404-.924.404-1.646 0-.641-.139-1.149-.416-1.524-.273-.375-.646-.563-1.119-.563-.465 0-.834.186-1.107.557-.274.367-.411.918-.411 1.653Zm9.897-2.086h-2.754V47h-1.418v-6.34h4.172v1.149Zm4.764-1.149h1.418V47h-1.418v-4.23L161.492 47h-1.418v-6.34h1.418v4.23l2.485-4.23Zm6.89 0h1.418V47h-1.418v-4.23L168.383 47h-1.418v-6.34h1.418v4.23l2.484-4.23Z" fill="#788891"/><path d="M32.067 13.867c1.128 0 2.081.727 2.44 1.733h8.986a2.596 2.596 0 0 1 2.44-1.733c1.434 0 2.6 1.166 2.6 2.6 0 1.433-1.166 2.6-2.6 2.6a2.597 2.597 0 0 1-2.44-1.734h-8.987a2.597 2.597 0 0 1-2.44 1.733 2.603 2.603 0 0 1-2.6-2.6c0-1.433 1.167-2.6 2.6-2.6Zm13.866 3.466a.868.868 0 0 0 0-1.733.867.867 0 0 0 0 1.733Zm-13.866 0a.868.868 0 1 0-.002-1.735.868.868 0 0 0 .002 1.735Z" fill="#00B2FF"/><path d="M25.133 19.226v-5.36c0-.23.091-.45.254-.612l3.467-3.467a.864.864 0 0 1 .613-.254h2.76a2.596 2.596 0 0 1 2.44-1.733c1.433 0 2.6 1.166 2.6 2.6 0 1.433-1.167 2.6-2.6 2.6a2.596 2.596 0 0 1-2.44-1.733h-2.402l-2.958 2.958v5a2.596 2.596 0 0 1 1.733 2.441c0 1.434-1.167 2.6-2.6 2.6a2.603 2.603 0 0 1-2.6-2.6c0-1.128.727-2.081 1.733-2.44Zm9.534-7.96a.868.868 0 1 0-.002-1.735.868.868 0 0 0 .002 1.736ZM26 22.534a.867.867 0 1 0-.002-1.735.867.867 0 0 0 .002 1.735ZM9.533 22.533c.4 0 .775.098 1.114.26l1.486-1.485V13c0-.23.091-.45.254-.613l8.674-8.673A2.556 2.556 0 0 1 20.8 2.6c0-1.433 1.166-2.6 2.6-2.6C24.834 0 26 1.167 26 2.6s-1.166 2.6-2.6 2.6c-.4 0-.775-.098-1.114-.261l-8.42 8.42v8.307c0 .23-.09.451-.253.613l-1.74 1.74c.162.34.26.714.26 1.114 0 1.433-1.166 2.6-2.6 2.6a2.603 2.603 0 0 1-2.6-2.6c0-1.433 1.167-2.6 2.6-2.6ZM23.4 3.467a.868.868 0 0 0 0-1.734.868.868 0 0 0 0 1.734ZM9.533 26a.868.868 0 1 0-.001-1.735A.868.868 0 0 0 9.533 26ZM1.733 12.293V8.667c0-.231.091-.451.254-.613l6.067-6.067a.864.864 0 0 1 .613-.254h4.492A2.597 2.597 0 0 1 15.6 0c1.433 0 2.6 1.167 2.6 2.6s-1.167 2.6-2.6 2.6a2.597 2.597 0 0 1-2.44-1.733H9.024L3.467 9.025v3.268a2.596 2.596 0 0 1 1.733 2.44c0 1.433-1.167 2.6-2.6 2.6a2.603 2.603 0 0 1-2.6-2.6c0-1.128.727-2.082 1.733-2.44ZM15.6 3.467a.867.867 0 1 0-.002-1.735.867.867 0 0 0 .002 1.735ZM2.6 15.6a.867.867 0 1 0-.002-1.735A.867.867 0 0 0 2.6 15.6ZM13.866 46.96V34.507a2.597 2.597 0 0 1-1.733-2.44c0-1.434 1.167-2.6 2.6-2.6 1.129 0 2.082.726 2.44 1.733h8.986a2.597 2.597 0 0 1 2.441-1.734c1.128 0 2.082.727 2.44 1.733h5.001l3.22-3.22A2.557 2.557 0 0 1 39 26.867c0-1.433 1.166-2.6 2.6-2.6 1.433 0 2.6 1.167 2.6 2.6 0 1.434-1.167 2.6-2.6 2.6-.4 0-.775-.098-1.114-.26l-3.473 3.473a.864.864 0 0 1-.613.254h-5.36a2.597 2.597 0 0 1-2.44 1.733 2.597 2.597 0 0 1-2.44-1.733h-8.987a2.598 2.598 0 0 1-1.574 1.574V46.96a2.596 2.596 0 0 1 1.733 2.44c0 1.434-1.166 2.6-2.6 2.6a2.603 2.603 0 0 1-2.6-2.6c0-1.128.728-2.082 1.734-2.44ZM41.6 27.732a.867.867 0 1 0-.002-1.735.867.867 0 0 0 .002 1.735Zm-13 5.2a.868.868 0 1 0-.002-1.735.868.868 0 0 0 .002 1.735ZM14.733 50.266a.868.868 0 0 0 0-1.733.868.868 0 0 0 0 1.733Zm0-17.333a.868.868 0 0 0 0-1.733.868.868 0 0 0 0 1.733Z" fill="#00B2FF"/><path d="M18.2 17.492v-2.759c0-.23.091-.45.254-.613L28.86 3.714A2.556 2.556 0 0 1 28.6 2.6c0-1.433 1.166-2.6 2.6-2.6 1.128 0 2.082.727 2.44 1.733h3.627c.478 0 .866.388.866.867v2.241l3.22 3.22c.339-.163.713-.261 1.114-.261 1.433 0 2.6 1.166 2.6 2.6 0 1.433-1.167 2.6-2.6 2.6a2.603 2.603 0 0 1-2.6-2.6c0-.4.098-.775.26-1.114l-3.473-3.473A.863.863 0 0 1 36.4 5.2V3.467h-2.76A2.596 2.596 0 0 1 31.2 5.2c-.4 0-.775-.098-1.114-.261L19.933 15.092v2.4a2.596 2.596 0 0 1 1.734 2.441c0 1.433-1.167 2.6-2.6 2.6a2.603 2.603 0 0 1-2.6-2.6c0-1.128.727-2.082 1.733-2.44Zm24.267-6.226a.868.868 0 1 0-.002-1.735.868.868 0 0 0 .002 1.736ZM31.2 3.467a.868.868 0 0 0 0-1.733.868.868 0 0 0 0 1.734ZM19.067 20.8a.868.868 0 1 0-.002-1.735.868.868 0 0 0 .002 1.735Z" fill="#00B2FF"/><path d="M20.8 24.266c1.128 0 2.082.727 2.44 1.734h10.201l4.946-4.946A.864.864 0 0 1 39 20.8h9.175l2.092-2.092v-7.083L43.58 4.94c-.338.163-.713.26-1.113.26a2.603 2.603 0 0 1-2.6-2.599c0-1.433 1.166-2.6 2.6-2.6 1.433 0 2.6 1.167 2.6 2.6 0 .4-.098.775-.261 1.114l6.94 6.94a.863.863 0 0 1 .254.613v7.8c0 .23-.091.45-.254.612l-2.6 2.6a.864.864 0 0 1-.613.254H39.36l-4.946 4.946a.864.864 0 0 1-.613.254H23.24a2.596 2.596 0 0 1-2.44 1.733 2.603 2.603 0 0 1-2.6-2.6c0-1.433 1.166-2.6 2.6-2.6ZM42.467 1.733a.868.868 0 1 0 .001 1.735.868.868 0 0 0-.001-1.735Zm-21.667 26a.868.868 0 0 0 0-1.733.868.868 0 0 0 0 1.733ZM2.6 20.8c.4 0 .775.098 1.114.26l3.22-3.219v-5A2.596 2.596 0 0 1 5.2 10.4c0-1.434 1.167-2.6 2.6-2.6s2.6 1.166 2.6 2.6a2.596 2.596 0 0 1-1.733 2.44v5.36c0 .23-.091.45-.254.613l-3.474 3.473c.163.339.261.713.261 1.114a2.597 2.597 0 0 1-1.733 2.44v.668l6.679 6.679a.863.863 0 0 1 .254.613v1.026a2.596 2.596 0 0 1 1.733 2.44 2.596 2.596 0 0 1-1.733 2.44v2.054a2.596 2.596 0 0 1 1.733 2.44c0 1.434-1.166 2.6-2.6 2.6a2.603 2.603 0 0 1-2.6-2.6c0-1.128.727-2.082 1.734-2.44v-2.053a2.596 2.596 0 0 1-1.734-2.44c0-1.13.727-2.083 1.734-2.441v-.668l-6.68-6.679a.863.863 0 0 1-.254-.613V25.84A2.597 2.597 0 0 1 0 23.4c0-1.434 1.167-2.6 2.6-2.6Zm5.2-9.534a.867.867 0 1 0-.002-1.734.867.867 0 0 0 .002 1.735Zm1.733 33.8a.868.868 0 0 0 0-1.733.867.867 0 0 0 0 1.733Zm0-6.933a.868.868 0 0 0 0-1.733.867.867 0 0 0 0 1.733ZM2.6 24.266a.867.867 0 1 0-.002-1.735.867.867 0 0 0 .002 1.735Z" fill="#00B2FF"/></symbol><symbol id="header-logo-mobile"><path d="M32.067 13.867c1.128 0 2.081.727 2.44 1.733h8.986a2.596 2.596 0 0 1 2.44-1.733c1.434 0 2.6 1.166 2.6 2.6 0 1.433-1.166 2.6-2.6 2.6a2.597 2.597 0 0 1-2.44-1.734h-8.987a2.597 2.597 0 0 1-2.44 1.733 2.603 2.603 0 0 1-2.6-2.6c0-1.433 1.167-2.6 2.6-2.6Zm13.866 3.466a.868.868 0 0 0 0-1.733.867.867 0 0 0 0 1.733Zm-13.866 0a.868.868 0 1 0-.002-1.735.868.868 0 0 0 .002 1.735Z" fill="#00B2FF"/><path d="M25.133 19.226v-5.36c0-.23.091-.45.254-.612l3.467-3.467a.864.864 0 0 1 .613-.254h2.76a2.596 2.596 0 0 1 2.44-1.733c1.433 0 2.6 1.166 2.6 2.6 0 1.433-1.167 2.6-2.6 2.6a2.596 2.596 0 0 1-2.44-1.733h-2.402l-2.958 2.958v5a2.596 2.596 0 0 1 1.733 2.441c0 1.434-1.167 2.6-2.6 2.6a2.603 2.603 0 0 1-2.6-2.6c0-1.128.727-2.081 1.733-2.44Zm9.534-7.96a.868.868 0 1 0-.002-1.735.868.868 0 0 0 .002 1.736ZM26 22.534a.867.867 0 1 0-.002-1.735.867.867 0 0 0 .002 1.735ZM9.533 22.533c.4 0 .775.098 1.114.26l1.486-1.485V13c0-.23.091-.45.254-.613l8.674-8.673A2.556 2.556 0 0 1 20.8 2.6c0-1.433 1.166-2.6 2.6-2.6C24.834 0 26 1.167 26 2.6s-1.166 2.6-2.6 2.6c-.4 0-.775-.098-1.114-.261l-8.42 8.42v8.307c0 .23-.09.451-.253.613l-1.74 1.74c.162.34.26.714.26 1.114 0 1.433-1.166 2.6-2.6 2.6a2.603 2.603 0 0 1-2.6-2.6c0-1.433 1.167-2.6 2.6-2.6ZM23.4 3.467a.868.868 0 0 0 0-1.734.868.868 0 0 0 0 1.734ZM9.533 26a.868.868 0 1 0-.001-1.735A.868.868 0 0 0 9.533 26ZM1.733 12.293V8.667c0-.231.091-.451.254-.613l6.067-6.067a.864.864 0 0 1 .613-.254h4.492A2.597 2.597 0 0 1 15.6 0c1.433 0 2.6 1.167 2.6 2.6s-1.167 2.6-2.6 2.6a2.597 2.597 0 0 1-2.44-1.733H9.024L3.467 9.025v3.268a2.596 2.596 0 0 1 1.733 2.44c0 1.433-1.167 2.6-2.6 2.6a2.603 2.603 0 0 1-2.6-2.6c0-1.128.727-2.082 1.733-2.44ZM15.6 3.467a.867.867 0 1 0-.002-1.735.867.867 0 0 0 .002 1.735ZM2.6 15.6a.867.867 0 1 0-.002-1.735A.867.867 0 0 0 2.6 15.6ZM13.866 46.96V34.507a2.597 2.597 0 0 1-1.733-2.44c0-1.434 1.167-2.6 2.6-2.6 1.129 0 2.082.726 2.44 1.733h8.986a2.597 2.597 0 0 1 2.441-1.734c1.128 0 2.082.727 2.44 1.733h5.001l3.22-3.22A2.557 2.557 0 0 1 39 26.867c0-1.433 1.166-2.6 2.6-2.6 1.433 0 2.6 1.167 2.6 2.6 0 1.434-1.167 2.6-2.6 2.6-.4 0-.775-.098-1.114-.26l-3.473 3.473a.864.864 0 0 1-.613.254h-5.36a2.597 2.597 0 0 1-2.44 1.733 2.597 2.597 0 0 1-2.44-1.733h-8.987a2.598 2.598 0 0 1-1.574 1.574V46.96a2.596 2.596 0 0 1 1.733 2.44c0 1.434-1.166 2.6-2.6 2.6a2.603 2.603 0 0 1-2.6-2.6c0-1.128.728-2.082 1.734-2.44ZM41.6 27.732a.867.867 0 1 0-.002-1.735.867.867 0 0 0 .002 1.735Zm-13 5.2a.868.868 0 1 0-.002-1.735.868.868 0 0 0 .002 1.735ZM14.733 50.266a.868.868 0 0 0 0-1.733.868.868 0 0 0 0 1.733Zm0-17.333a.868.868 0 0 0 0-1.733.868.868 0 0 0 0 1.733Z" fill="#00B2FF"/><path d="M18.2 17.492v-2.759c0-.23.091-.45.254-.613L28.86 3.714A2.556 2.556 0 0 1 28.6 2.6c0-1.433 1.166-2.6 2.6-2.6 1.128 0 2.082.727 2.44 1.733h3.627c.478 0 .866.388.866.867v2.241l3.22 3.22c.339-.163.713-.261 1.114-.261 1.433 0 2.6 1.166 2.6 2.6 0 1.433-1.167 2.6-2.6 2.6a2.603 2.603 0 0 1-2.6-2.6c0-.4.098-.775.26-1.114l-3.473-3.473A.863.863 0 0 1 36.4 5.2V3.467h-2.76A2.596 2.596 0 0 1 31.2 5.2c-.4 0-.775-.098-1.114-.261L19.933 15.092v2.4a2.596 2.596 0 0 1 1.734 2.441c0 1.433-1.167 2.6-2.6 2.6a2.603 2.603 0 0 1-2.6-2.6c0-1.128.727-2.082 1.733-2.44Zm24.267-6.226a.868.868 0 1 0-.002-1.735.868.868 0 0 0 .002 1.736ZM31.2 3.467a.868.868 0 0 0 0-1.733.868.868 0 0 0 0 1.734ZM19.067 20.8a.868.868 0 1 0-.002-1.735.868.868 0 0 0 .002 1.735Z" fill="#00B2FF"/><path d="M20.8 24.266c1.128 0 2.082.727 2.44 1.734h10.201l4.946-4.946A.864.864 0 0 1 39 20.8h9.175l2.092-2.092v-7.083L43.58 4.94c-.338.163-.713.26-1.113.26a2.603 2.603 0 0 1-2.6-2.599c0-1.433 1.166-2.6 2.6-2.6 1.433 0 2.6 1.167 2.6 2.6 0 .4-.098.775-.261 1.114l6.94 6.94a.863.863 0 0 1 .254.613v7.8c0 .23-.091.45-.254.612l-2.6 2.6a.864.864 0 0 1-.613.254H39.36l-4.946 4.946a.864.864 0 0 1-.613.254H23.24a2.596 2.596 0 0 1-2.44 1.733 2.603 2.603 0 0 1-2.6-2.6c0-1.433 1.166-2.6 2.6-2.6ZM42.467 1.733a.868.868 0 1 0 .001 1.735.868.868 0 0 0-.001-1.735Zm-21.667 26a.868.868 0 0 0 0-1.733.868.868 0 0 0 0 1.733ZM2.6 20.8c.4 0 .775.098 1.114.26l3.22-3.219v-5A2.596 2.596 0 0 1 5.2 10.4c0-1.434 1.167-2.6 2.6-2.6s2.6 1.166 2.6 2.6a2.596 2.596 0 0 1-1.733 2.44v5.36c0 .23-.091.45-.254.613l-3.474 3.473c.163.339.261.713.261 1.114a2.597 2.597 0 0 1-1.733 2.44v.668l6.679 6.679a.863.863 0 0 1 .254.613v1.026a2.596 2.596 0 0 1 1.733 2.44 2.596 2.596 0 0 1-1.733 2.44v2.054a2.596 2.596 0 0 1 1.733 2.44c0 1.434-1.166 2.6-2.6 2.6a2.603 2.603 0 0 1-2.6-2.6c0-1.128.727-2.082 1.734-2.44v-2.053a2.596 2.596 0 0 1-1.734-2.44c0-1.13.727-2.083 1.734-2.441v-.668l-6.68-6.679a.863.863 0 0 1-.254-.613V25.84A2.597 2.597 0 0 1 0 23.4c0-1.434 1.167-2.6 2.6-2.6Zm5.2-9.534a.867.867 0 1 0-.002-1.734.867.867 0 0 0 .002 1.735Zm1.733 33.8a.868.868 0 0 0 0-1.733.867.867 0 0 0 0 1.733Zm0-6.933a.868.868 0 0 0 0-1.733.867.867 0 0 0 0 1.733ZM2.6 24.266a.867.867 0 1 0-.002-1.735.867.867 0 0 0 .002 1.735Z" fill="#00B2FF"/></symbol><symbol id="mail"><path d="M16.68 0H2.323C1.042 0 0 1.009 0 2.25v9.5C0 12.991 1.042 14 2.323 14h14.354C17.958 14 19 12.991 19 11.75V2.253C19.004 1.013 17.962 0 16.68 0Zm1.262 11.75c0 .674-.566 1.222-1.262 1.222H2.323c-.695 0-1.262-.548-1.262-1.222V2.253c0-.673.567-1.221 1.262-1.221h14.354c.695 0 1.262.548 1.262 1.221v9.497h.003Z" fill="#00B2FF"/><path d="m11.983 6.882 4.646-4.035a.505.505 0 0 0 .04-.727.546.546 0 0 0-.751-.038L9.51 7.651 8.26 6.57c-.004-.004-.008-.008-.008-.012a.78.78 0 0 0-.087-.072L3.078 2.078a.542.542 0 0 0-.75.042.502.502 0 0 0 .043.727l4.702 4.07L2.39 11.16a.504.504 0 0 0-.023.727.541.541 0 0 0 .75.027l4.754-4.305L9.16 8.724a.54.54 0 0 0 .708-.004l1.325-1.15 4.725 4.348c.102.095.236.14.366.14.141 0 .279-.053.385-.16a.504.504 0 0 0-.02-.726l-4.666-4.29Z" fill="#00B2FF"/></symbol><symbol id="ok"><path d="M13.851 10.957c1.016 0 1.806-.836 1.787-1.746.019-.91-.752-1.764-1.768-1.764-.978 0-1.787.78-1.787 1.746 0 .965.79 1.764 1.768 1.764Z" fill="#CDCDCD"/><path d="M13.701 0C6.441 0 .535 5.831.535 13c0 7.187 5.906 13 13.166 13 7.279 0 13.166-5.831 13.166-13C26.885 5.83 20.98 0 13.7 0Zm.188 4.921c2.37 0 4.326 1.932 4.307 4.29 0 2.377-1.975 4.29-4.382 4.253-2.37-.037-4.27-1.95-4.27-4.271 0-2.359 1.938-4.272 4.345-4.272Zm4.834 10.029c0 .037-.019.056-.019.093a1.213 1.213 0 0 1-.564.873c-.207.13-.433.26-.659.371a8.55 8.55 0 0 1-1.786.65c-.075.019-.075.019-.02.074l1.035 1.022 1.317 1.3c.62.613.451 1.634-.339 2.006-.131.074-.282.092-.432.13h-.245c-.019 0-.037 0-.037-.02-.301-.036-.546-.185-.771-.39l-2.276-2.246c-.057-.056-.057-.056-.113 0l-2.295 2.265c-.131.13-.263.223-.432.298-.113.055-.245.074-.358.092h-.244c-.038 0-.057-.018-.094-.018-.508-.093-.847-.372-.997-.854-.15-.483-.038-.91.32-1.263l.94-.929 1.392-1.374c.056-.056.056-.056-.019-.074-.019 0-.056-.019-.075-.019a8.182 8.182 0 0 1-2.351-.984c-.433-.279-.64-.687-.583-1.189.094-.928 1.147-1.43 1.937-.928.15.092.282.167.451.241a5.413 5.413 0 0 0 2.746.557c.47-.018.94-.111 1.411-.26.451-.148.846-.353 1.26-.575.677-.39 1.561-.075 1.825.65.037.11.056.204.075.315v.186Z" fill="#CDCDCD"/></symbol><symbol id="phone"><path d="M14.233 11.15c-.369-.383-.814-.588-1.286-.588-.468 0-.917.2-1.3.585l-1.203 1.196c-.099-.053-.198-.102-.293-.152a4.832 4.832 0 0 1-.377-.201c-1.126-.714-2.15-1.645-3.13-2.85-.476-.6-.796-1.105-1.028-1.618.312-.285.601-.581.883-.866l.32-.323c.798-.798.798-1.831 0-2.629l-1.04-1.037c-.117-.118-.24-.24-.353-.36A17.952 17.952 0 0 0 4.71 1.6c-.369-.365-.81-.559-1.274-.559-.464 0-.913.194-1.294.559l-.007.007L.84 2.91a2.778 2.778 0 0 0-.825 1.767c-.092 1.11.236 2.142.487 2.819.616 1.66 1.537 3.198 2.91 4.847a17.9 17.9 0 0 0 5.962 4.662c.875.414 2.043.904 3.348.987.08.004.163.008.24.008.878 0 1.617-.315 2.195-.942.004-.008.011-.012.015-.02.198-.239.426-.455.666-.687.163-.156.33-.319.494-.49.377-.391.575-.847.575-1.314 0-.471-.202-.924-.586-1.303l-2.089-2.094Zm1.362 4c-.004 0-.004.005 0 0-.148.16-.3.305-.464.464a9.977 9.977 0 0 0-.734.76c-.384.41-.837.604-1.43.604-.058 0-.119 0-.176-.004-1.13-.072-2.18-.513-2.967-.889a16.898 16.898 0 0 1-5.616-4.391C2.911 10.132 2.043 8.689 1.47 7.139c-.354-.946-.483-1.683-.426-2.379.038-.444.21-.813.525-1.128l1.297-1.295c.187-.175.385-.27.579-.27.24 0 .433.144.555.266l.011.011c.233.217.453.44.685.68.118.122.24.243.362.369L6.095 4.43c.404.403.404.775 0 1.178-.11.11-.217.22-.327.326-.32.327-.624.63-.955.927-.007.008-.015.012-.019.02-.327.326-.266.645-.198.862l.012.034c.27.653.65 1.269 1.229 2.002l.003.004c1.05 1.291 2.158 2.298 3.379 3.07.156.098.316.178.468.254.137.068.266.133.377.201.015.008.03.02.045.027.13.064.251.095.377.095.316 0 .513-.198.578-.262l1.301-1.3c.13-.129.335-.285.575-.285.236 0 .43.149.548.278l.007.007 2.097 2.094c.391.387.391.786.003 1.189ZM9.728 4.282a4.827 4.827 0 0 1 2.626 1.36 4.84 4.84 0 0 1 1.362 2.621.51.51 0 0 0 .506.426c.03 0 .057-.004.087-.008a.513.513 0 0 0 .422-.593 5.856 5.856 0 0 0-1.647-3.172 5.871 5.871 0 0 0-3.177-1.645.516.516 0 0 0-.593.418.507.507 0 0 0 .414.593ZM17.992 7.94a9.635 9.635 0 0 0-2.713-5.223 9.659 9.659 0 0 0-5.23-2.71.512.512 0 1 0-.168 1.011c1.773.3 3.39 1.14 4.676 2.42a8.601 8.601 0 0 1 2.423 4.67.51.51 0 0 0 .506.425c.03 0 .057-.004.088-.008a.503.503 0 0 0 .418-.585Z" fill="#00B2FF"/></symbol><symbol id="vk"><path d="M19.475 15.127c-1.109-1.024-1.188-1.024-.238-2.206 1.188-1.497 2.773-3.388 1.347-3.388H17.97c-.475 0-.554.316-.713.71-.633 1.496-1.9 3.466-2.376 3.15-.475-.314-.237-1.496-.237-3.387a.61.61 0 0 0-.159-.63c-.158-.158-.396-.315-.633-.315-.396-.079-.792-.158-1.188-.158-1.505 0-2.535.63-1.98.71 1.03.157.95 2.363.712 3.308-.396 1.655-1.98-1.26-2.693-2.757-.079-.394-.396-.63-.792-.63H5.852c-.317 0-.554.078-.554.315 0 .393 1.98 4.254 3.801 6.224 1.822 1.89 3.644 1.733 4.911 1.733a.607.607 0 0 0 .396-.158.6.6 0 0 0 .158-.394c0-1.26.476-1.89 1.347-1.024.95.945 1.188 1.576 2.376 1.576h2.138c.555 0 .713-.158.713-.394.08-.552-.871-1.576-1.663-2.285ZM13.852.001c7.366.157 13.226 6.066 13.147 13.235-.079 7.17-6.178 12.842-13.543 12.763C6.01 25.92.07 20.17.07 13 .15 5.753 6.327-.077 13.852.002Z" fill="#CDCDCD"/></symbol></svg>